<svg xmlns="http://www.w3.org/2000/svg" viewBox="0 0 64 64" role="img" aria-label="GENKI BTC SIGNAL">
  <defs>
    <linearGradient id="g" x1="0" y1="0" x2="1" y2="1">
      <stop offset="0%" stop-color="#f8d56f"/>
      <stop offset="100%" stop-color="#d8b24a"/>
    </linearGradient>
  </defs>
  <rect width="64" height="64" rx="14" fill="#080d1a"/>
  <rect x="6" y="6" width="52" height="52" rx="12" fill="url(#g)"/>
  <path d="M23 17h11.4c6.2 0 10.1 2.8 10.1 7.4 0 2.9-1.8 5.2-4.9 6.1 3.7.8 5.8 3.4 5.8 7 0 5.1-4.2 8.5-10.9 8.5H23V17zm10.5 12.1c2.8 0 4.6-1.2 4.6-3.3 0-2-1.6-3.2-4.5-3.2h-4.2v6.5h4.1zm.7 11.3c3.2 0 5.1-1.3 5.1-3.7 0-2.3-1.8-3.6-5.2-3.6h-4.7v7.3h4.8z" fill="#0b1020"/>
  <circle cx="49" cy="49" r="4" fill="#0b1020"/>
</svg>
